<?xml version="1.0" standalone="no"?>
<!DOCTYPE svg PUBLIC "-//W3C//DTD SVG 20010904//EN"
 "http://www.w3.org/TR/2001/REC-SVG-20010904/DTD/svg10.dtd">
<svg version="1.0" xmlns="http://www.w3.org/2000/svg"
 width="1280.000000pt" height="960.000000pt" viewBox="0 0 1280.000000 960.000000"
 preserveAspectRatio="xMidYMid meet">

<g transform="translate(0.000000,960.000000) scale(0.100000,-0.100000)"
fill="#DDBA00" stroke="none">
<path d="M2833 6649 c-314 -40 -616 -190 -843 -418 -204 -204 -338 -452 -402
-744 -22 -99 -23 -117 -23 -672 0 -515 2 -580 19 -670 39 -210 127 -417 253
-593 77 -108 247 -275 355 -350 163 -112 379 -200 583 -238 96 -18 224 -19
3630 -19 l3530 0 113 23 c198 40 400 125 560 234 108 75 278 242 355 350 126
176 214 383 253 593 17 90 19 155 19 670 0 555 -1 573 -23 672 -64 292 -198
540 -402 744 -230 231 -527 377 -851 419 -91 12 -7035 11 -7126 -1z m-313
-1111 l5 -448 42 55 c102 132 274 184 460 140 169 -40 288 -168 339 -365 25
-97 23 -264 -5 -363 -67 -243 -262 -383 -507 -364 -125 9 -236 76 -321 192
l-22 30 0 -92 -1 -93 -85 0 -85 0 0 873 c0 481 3 877 7 881 4 4 43 5 88 4 l80
-3 5 -447z m3650 -138 c0 -324 3 -590 6 -590 3 0 115 104 249 230 l244 231
115 -3 115 -3 -249 -229 c-138 -127 -250 -235 -250 -241 0 -5 122 -132 270
-280 149 -148 270 -273 270 -277 0 -5 -53 -8 -119 -8 l-118 0 -259 269 c-142
148 -262 269 -266 270 -5 1 -8 -120 -8 -269 l0 -270 -90 0 -90 0 0 880 0 880
90 0 90 0 0 -590z m-1838 -127 c178 -62 321 -214 368 -393 16 -57 16 -200 1
-264 -35 -149 -154 -292 -301 -365 -102 -49 -177 -65 -285 -58 -153 9 -299 82
-394 197 -89 107 -131 221 -131 356 1 257 166 469 420 539 76 21 245 14 322
-12z m3331 12 c80 -21 157 -73 209 -141 l43 -58 3 92 3 92 89 0 90 0 0 -520 0
-521 -87 3 -88 3 0 83 c0 45 -3 82 -6 82 -4 0 -14 -11 -23 -26 -36 -53 -104
-112 -168 -143 -118 -58 -279 -54 -407 10 -220 110 -322 413 -240 710 11 41
34 97 50 125 57 101 181 192 289 213 72 14 181 12 243 -4z m-2488 -196 c71
-98 132 -179 137 -179 4 0 18 15 31 33 13 17 72 98 132 180 l107 147 110 0
109 0 -19 -27 c-11 -16 -93 -120 -182 -233 -89 -113 -166 -215 -172 -227 -9
-19 11 -51 186 -285 l198 -263 -108 -3 c-93 -2 -109 0 -121 15 -8 10 -69 97
-137 193 -67 96 -127 175 -134 175 -7 0 -72 -85 -145 -190 l-132 -190 -109 -3
c-70 -2 -107 1 -104 7 3 11 104 149 276 378 56 76 102 143 102 150 0 12 -28
50 -268 359 -56 73 -102 135 -102 138 0 3 48 6 108 5 l107 0 130 -180z m3343
109 c17 -40 83 -205 147 -365 65 -161 121 -293 125 -293 4 0 76 163 161 363
l154 362 99 3 c77 2 97 0 93 -10 -2 -7 -43 -98 -90 -203 -155 -346 -434 -967
-516 -1150 l-80 -180 -101 -3 c-55 -1 -100 0 -100 3 0 3 10 25 22 48 11 23 74
159 139 301 l118 259 -63 146 c-35 80 -91 209 -124 286 -33 77 -95 218 -136
313 -42 96 -76 178 -76 183 0 5 45 9 99 9 l99 0 30 -72z m1114 -245 c5 -248 9
-334 23 -390 33 -142 111 -203 261 -203 113 0 174 20 219 72 65 76 68 102 73
491 l3 347 90 0 89 0 0 -358 c0 -291 -3 -369 -16 -417 -49 -189 -184 -290
-404 -302 -288 -17 -465 102 -509 342 -7 35 -11 195 -11 397 l0 338 89 0 88 0
5 -317z m-1532 -1003 l0 -60 -2865 0 -2865 0 0 60 0 60 2865 0 2865 0 0 -60z
m2310 0 l0 -60 -500 0 -500 0 0 60 0 60 500 0 500 0 0 -60z"/>
<path d="M2738 5105 c-90 -33 -152 -95 -200 -200 -19 -43 -22 -67 -23 -165 0
-105 3 -120 28 -176 61 -131 164 -194 319 -194 70 0 92 4 143 28 33 16 75 46
94 67 95 108 124 291 74 454 -23 74 -106 160 -177 184 -61 21 -205 22 -258 2z"/>
<path d="M4029 5116 c-94 -36 -174 -111 -218 -205 -23 -50 -26 -68 -26 -166 0
-101 2 -115 29 -170 36 -73 113 -152 181 -185 43 -22 64 -25 155 -25 121 0
168 16 240 81 97 88 134 181 128 322 -3 68 -9 100 -30 144 -34 72 -102 146
-170 183 -47 26 -64 30 -153 32 -67 2 -112 -2 -136 -11z"/>
<path d="M7440 5103 c-63 -23 -141 -104 -171 -178 -31 -79 -34 -250 -6 -335
53 -156 168 -227 353 -218 130 6 214 61 272 177 25 52 27 64 27 186 0 127 -1
132 -33 197 -39 80 -108 145 -178 171 -62 22 -201 22 -264 0z"/>
</g>
</svg>
